<?xml version="1.0" encoding="UTF-8" standalone="no" ?>
<!DOCTYPE svg PUBLIC "-//W3C//DTD SVG 1.1//EN" "http://www.w3.org/Graphics/SVG/1.1/DTD/svg11.dtd">
<svg xmlns="http://www.w3.org/2000/svg" xmlns:xlink="http://www.w3.org/1999/xlink" version="1.1" width="1080" height="450" viewBox="0 125.36 1080 450" xml:space="preserve">
<desc>Created with Fabric.js 5.2.4</desc>
<defs>
</defs>
<g transform="matrix(1 0 0 1 540 225)" id="c270f339-f278-47ae-b7c1-370a831bd9e3"  >
<rect style="stroke: none; stroke-width: 1; stroke-dasharray: none; stroke-linecap: butt; stroke-dashoffset: 0; stroke-linejoin: miter; stroke-miterlimit: 4; fill: rgb(255,255,255); fill-rule: nonzero; opacity: 1; visibility: hidden;" vector-effect="non-scaling-stroke"  x="-540" y="-225" rx="0" ry="0" width="1080" height="450" />
</g>
<g transform="matrix(Infinity NaN NaN Infinity 0 0)" id="0b0075ee-9415-46c2-bc0d-6dafc5879a67"  >
</g>
<g transform="matrix(NaN NaN NaN NaN 0 0)"  >
<g style="">
</g>
</g>
<g transform="matrix(2.34 0 0 2.34 540.01 333.06)"  >
<g style="" vector-effect="non-scaling-stroke"   >
		<g transform="matrix(1 0 0 1 -53.73 48.79)"  >
<path style="stroke: none; stroke-width: 1; stroke-dasharray: none; stroke-linecap: butt; stroke-dashoffset: 0; stroke-linejoin: miter; stroke-miterlimit: 10; fill: rgb(61,1,164); fill-rule: nonzero; opacity: 1;" vector-effect="non-scaling-stroke"  transform=" translate(-221.27, -283.79)" d="M 268.35274 256.21301 C 268.44467 256.30494 268.53659999999996 256.30494 268.53659999999996 256.39687 C 268.44467 256.30494 268.44467 256.21301 268.35274 256.21301 z M 271.38644 256.12108 C 270.651 254.83406 269.27205 253.91476 267.8931 253.36318 C 263.75624 251.70844 259.15974 251.52458 254.74709000000001 251.43265 C 248.86356 251.34072 243.07196000000002 251.70844 237.28037 252.26002 C 230.93719000000002 252.90353 224.68594000000002 253.82283 218.43469 254.92598999999998 C 213.37852999999998 255.84528999999998 208.23045 256.94845 203.26621999999998 258.41933 C 201.97919999999996 258.78705 200.78410999999997 259.2467 199.49707999999998 259.70635 L 197.84233999999998 260.44178999999997 C 197.65847999999997 260.53371999999996 197.38268999999997 260.62564999999995 197.19883 260.80951 C 197.1069 260.80951 197.01496999999998 260.90144 196.92304 260.99336999999997 C 196.92304 260.99336999999997 196.92304 260.99336999999997 196.83111 260.99336999999997 C 196.73918 261.08529999999996 196.64724999999999 261.17722999999995 196.64724999999999 261.26915999999994 C 196.64724999999999 261.26915999999994 196.64724999999999 261.26915999999994 196.55532 261.26915999999994 C 196.37145999999998 261.5449499999999 196.46339 261.91266999999993 196.64724999999999 262.18845999999996 C 197.01496999999998 262.55618 197.65848 262.83196999999996 198.11812999999998 262.74003999999996 L 198.30199 262.74003999999996 C 198.39391999999998 262.74003999999996 198.48585 262.74003999999996 198.48585 262.74003999999996 L 198.48585 262.74003999999996 C 198.48585 262.74003999999996 198.39392 262.74003999999996 198.30199 262.74003999999996 L 198.57778 262.74003999999996 C 198.76164 262.74003999999996 198.76164 262.74003999999996 198.85357 262.74003999999996 C 199.31322 262.83196999999996 200.14059 262.83196999999996 199.8648 262.18845999999996 C 199.8648 262.18845999999996 199.8648 262.18845999999996 199.8648 262.09653 L 200.41638 261.82074 L 200.50831 261.82074 C 200.60023999999999 261.72881 200.69217 261.72881 200.7841 261.72881 L 201.33568 261.45302000000004 L 202.53077 261.0853 C 204.64515999999998 260.34986000000004 206.66763 259.79828000000003 208.78202 259.24670000000003 C 211.35605999999999 258.60319000000004 213.93010999999998 258.05161000000004 216.59608 257.59196000000003 C 218.06696 257.22424 219.44591 257.04038 220.9168 256.76459000000006 C 222.11189 256.4888000000001 223.12312 256.30494000000004 225.23752 256.0291500000001 C 231.39684 255.29371000000006 237.64809 254.37441000000007 243.89934 253.91476000000006 C 246.74917 253.73090000000005 249.69093999999998 253.54704000000007 252.6327 253.54704000000007 L 256.49377 253.54704000000007 L 256.5857 253.54704000000007 C 256.67762999999997 253.54704000000007 256.76955999999996 253.54704000000007 256.76955999999996 253.54704000000007 L 256.76955999999996 253.54704000000007 L 257.13728 253.54704000000007 C 257.505 253.63897000000006 257.78078999999997 253.63897000000006 258.14851 253.63897000000006 C 258.70009 253.63897000000006 259.3436 253.73090000000005 259.89518 253.73090000000005 L 263.11273 254.09862000000004 L 264.49168 254.37441000000004 C 263.84817 254.28248000000005 264.58360999999996 254.46634000000003 264.76746999999995 254.46634000000003 L 265.41097999999994 254.65020000000004 C 265.77869999999996 254.74213000000003 266.1464199999999 254.83406000000005 266.51413999999994 255.01792000000003 C 266.60606999999993 255.01792000000003 266.6979999999999 255.10985000000002 266.7899299999999 255.10985000000002 C 266.8818599999999 255.10985000000002 266.3302799999999 254.92599 266.6979999999999 255.01792000000003 L 267.15764999999993 255.29371000000003 L 267.61729999999994 255.47757000000004 L 267.70922999999993 255.56950000000003 L 268.07694999999995 255.84529000000003 L 268.16887999999994 255.93722000000002 C 268.4446699999999 256.12108 267.89309 255.66143000000002 268.16887999999994 255.84529000000003 L 268.4446699999999 256.21301000000005 C 268.5365999999999 256.30494000000004 268.7204599999999 256.4888 268.5365999999999 256.39687000000004 L 268.5365999999999 256.39687000000004 C 268.5365999999999 256.4888 268.6285299999999 256.58073 268.7204599999999 256.67266 C 268.6285299999999 256.67266 268.6285299999999 256.67266 268.6285299999999 256.76459 C 268.7204599999999 256.85652 268.7204599999999 256.85652 268.7204599999999 256.94845 L 268.7204599999999 257.4081 L 268.7204599999999 257.4081 L 268.7204599999999 257.50003 C 268.7204599999999 257.59196 268.7204599999999 257.59196 268.7204599999999 257.59196 L 268.7204599999999 257.68388999999996 L 268.4446699999999 258.69512 C 268.0769499999999 259.33862999999997 269.0881799999999 259.98213999999996 269.5478299999999 260.07406999999995 C 270.1913399999999 260.25792999999993 271.01870999999994 260.25792999999993 271.2944999999999 259.61441999999994 L 271.2944999999999 259.61441999999994 C 271.3864299999999 259.52248999999995 271.3864299999999 259.52248999999995 271.3864299999999 259.43055999999996 C 271.4783599999999 259.33862999999997 271.4783599999999 259.2467 271.4783599999999 259.2467 C 271.5702899999999 259.06284 271.6622199999999 258.97091 271.6622199999999 258.78704999999997 C 271.75414999999987 258.41932999999995 271.84607999999986 258.14354 271.84607999999986 257.77581999999995 C 271.84607999999986 257.22423999999995 271.6622199999999 256.58072999999996 271.38642999999985 256.12107999999995 z M 196.55531 261.36109 z M 198.57778 262.74005 z M 200.32445 261.82074 L 200.41638 261.82074 C 200.32445 261.82074 200.23252 261.91267 200.32445 261.82074 z M 268.72046 256.76459 z M 271.20258 259.70635 C 271.29451 259.70635 271.29451 259.70635 271.29451 259.70635 C 271.20258 259.70635 271.20258 259.79828 271.20258 259.70635 z M 267.80116 255.66143 L 267.70923 255.5695 C 267.6173 255.47757000000001 267.24958 255.29371 267.80116 255.66143 z M 240.68177 256.21301 C 240.7737 256.21301 240.7737 256.21301 240.86563 256.12108 C 240.95756 256.02915 240.95756 256.12108 240.68177 256.21301 z M 234.33859 304.66018 L 234.24666000000002 304.66018 C 234.15473000000003 304.66018 234.15473000000003 304.66018 234.33859 304.66018 z M 243.62354 256.02915 C 243.34775 255.5695 242.70424 255.47757000000001 242.24459 255.5695 C 241.69301 255.5695 241.32529 255.75336000000001 240.86563999999998 256.12108 L 240.86563999999998 256.12108 C 240.77371 256.21301 240.77371 256.21301 240.68177999999997 256.30494 C 240.58984999999998 256.30494 240.58984999999998 256.30494 240.58984999999998 256.30494 L 240.31405999999998 256.58072999999996 C 239.85440999999997 257.04037999999997 239.39476 257.50003 239.02703999999997 258.05161 L 235.44176999999996 262.2804 C 232.13228999999995 266.50919 228.91472999999996 270.73796999999996 225.69717999999997 275.05869 C 222.01996999999997 279.83906 218.34276999999997 284.80328000000003 214.75748999999996 289.67558 L 205.56447999999997 301.99422000000004 C 205.10482999999996 302.63773000000003 204.55324999999996 303.37317 204.09359999999998 304.01668000000006 C 201.97920999999997 304.3844000000001 199.77288 304.75212000000005 197.65848999999997 305.21177000000006 C 192.32653999999997 306.40686000000005 187.08652999999998 307.8777400000001 181.93843999999996 309.62442000000004 C 178.26122999999995 310.81951000000004 174.58402999999996 312.19846000000007 171.09068999999997 314.03707 C 170.72296999999998 314.22093 170.63103999999996 314.86444 170.72296999999998 315.23216 C 170.99875999999998 315.87567 171.82612999999998 316.15146000000004 172.46963999999997 316.15146000000004 C 172.65349999999998 316.15146000000004 172.83735999999996 316.05953000000005 172.92928999999998 316.05953000000005 L 173.20507999999998 315.96760000000006 C 173.48086999999998 315.96760000000006 173.75665999999998 315.7837400000001 173.84858999999997 315.50795000000005 C 173.84858999999997 315.41602000000006 173.84858999999997 315.41602000000006 173.84858999999997 315.41602000000006 C 174.03244999999998 315.32409000000007 174.12437999999997 315.2321600000001 174.30823999999998 315.2321600000001 C 174.30823999999998 315.1402300000001 174.40016999999997 315.1402300000001 174.40016999999997 315.1402300000001 C 178.90474999999998 313.0258400000001 183.59317999999996 311.5549600000001 188.18968999999998 310.1760000000001 C 190.76372999999998 309.3486300000001 193.33777999999998 308.6131900000001 195.91181999999998 307.9696800000001 C 197.93427999999997 307.5100300000001 199.95674999999997 307.0503800000001 201.97920999999997 306.6826600000001 C 201.61148999999997 307.05038000000013 201.33569999999997 307.4181000000001 200.96797999999995 307.7858200000001 C 200.50832999999994 308.15354000000013 200.78411999999994 308.8889800000001 201.15183999999996 309.1647700000001 C 201.70341999999997 309.6244200000001 202.53078999999997 309.8082800000001 203.17429999999996 309.44056000000006 L 203.08236999999997 309.44056000000006 C 203.81780999999998 309.1647700000001 204.27745999999996 308.52126000000004 204.82903999999996 307.78582000000006 C 205.38061999999996 307.14231000000007 205.93219999999997 306.4988000000001 206.39184999999998 305.8552900000001 C 211.44800999999998 304.93599000000006 216.59608999999998 304.38441000000006 221.74417999999997 304.1086200000001 C 223.58277999999999 304.0166900000001 225.42138999999997 304.0166900000001 227.35191999999998 304.0166900000001 C 228.08736 304.0166900000001 228.45507999999998 304.0166900000001 230.10981999999998 304.1086200000001 L 232.95964999999998 304.38441000000006 L 234.24667 304.66020000000003 C 234.33859999999999 304.66020000000003 234.61439 304.66020000000003 234.61439 304.75213 C 234.79825 304.75213 234.98210999999998 304.84406 235.16597 304.93599 C 235.16597 305.11985 235.07404 305.21178 234.79825 305.30371 C 235.07404 305.11985000000004 234.33859999999999 305.48757 234.70632 305.30371 L 234.3386 305.48757 C 234.06281 305.48757 233.78702 305.5795 233.60316 305.67143 C 233.14351 305.76336 232.86772 306.13108 233.14351 306.49879999999996 C 233.32737 307.05037999999996 234.06280999999998 307.32616999999993 234.61439 307.32616999999993 C 235.34983 307.23423999999994 235.99334 307.23423999999994 236.63684999999998 307.05037999999996 C 237.37229 306.86652 238.01579999999998 306.31494 238.38351999999998 305.57949999999994 C 238.56737999999999 305.39563999999996 238.65930999999998 305.11984999999993 238.47544999999997 304.84405999999996 C 237.74000999999996 303.46511 235.99333999999996 302.91353 234.61437999999995 302.63773999999995 C 232.68384999999995 302.27001999999993 230.75330999999994 302.08615999999995 228.73084999999995 301.99422999999996 C 224.22626999999994 301.81037 219.72169999999994 301.99422999999996 215.21711999999994 302.45387999999997 C 212.91886999999994 302.63773999999995 210.62060999999994 303.00545999999997 208.32235999999995 303.28124999999994 C 211.17218999999994 299.60403999999994 213.93009999999995 295.8349099999999 216.59606999999994 292.06576999999993 L 227.53575999999995 277.4488799999999 C 230.75330999999994 273.03622999999993 234.06279999999995 268.7155199999999 237.37227999999996 264.3947999999999 C 239.39473999999996 261.8207599999999 241.60106999999996 259.2467099999999 243.62352999999996 256.6726699999999 C 243.71545999999995 256.58073999999993 243.80738999999997 256.1210899999999 243.62352999999996 256.02915999999993 z M 185.5237 294.82366 z" stroke-linecap="round" />
</g>
		<g transform="matrix(1 0 0 1 -31.37 51.78)"  >
<path style="stroke: none; stroke-width: 1; stroke-dasharray: none; stroke-linecap: butt; stroke-dashoffset: 0; stroke-linejoin: miter; stroke-miterlimit: 10; fill: rgb(61,1,164); fill-rule: nonzero; opacity: 1;" vector-effect="non-scaling-stroke"  transform=" translate(-243.63, -286.78)" d="M 239.48668 279.47133 C 238.56738 280.20677 237.64808 282.04537000000005 237.00457 283.60819000000004 L 235.07404 287.10153 L 234.52246 288.20469 C 233.69509 289.76750000000004 233.51122999999998 289.95136 231.76456 292.61734 L 230.6614 294.27208 C 230.47753999999998 294.63980000000004 231.02911999999998 295.46717 231.48877 295.65103 C 231.85648999999998 295.74296 232.95964999999998 296.01875 233.14351 295.65103 C 233.23543999999998 295.5591 233.32737 295.37524 233.4193 295.19138 C 234.06280999999998 294.27207999999996 234.24667 293.99629 234.70632 293.16891999999996 L 236.82071000000002 290.77873999999997 L 238.93510000000003 288.84821 L 241.23335000000003 286.64189 L 242.88809000000003 285.35487 L 245.09441000000004 284.06785 L 246.10564000000005 283.42434000000003 L 247.85231000000005 282.41311 L 248.77161000000004 281.95346 C 249.59898000000004 281.49381 250.51828000000003 281.03416 251.52951000000004 280.57451000000003 L 252.35688000000005 280.29872000000006 C 252.54074000000006 280.20679000000007 252.54074000000006 280.20679000000007 252.63267000000005 280.20679000000007 C 253.55197000000004 279.9310000000001 253.91969000000006 279.9310000000001 254.10355000000004 279.9310000000001 C 254.83899000000005 280.20679000000007 256.21794000000006 280.4825800000001 256.58566 279.7471400000001 C 256.86145 278.5520500000001 255.75829000000002 278.0004700000001 254.93092000000001 277.81661000000014 C 254.74706 277.72468000000015 254.10355 277.72468000000015 253.55197 277.72468000000015 C 252.90846000000002 277.81661000000014 252.81653 277.81661000000014 252.81653 277.81661000000014 C 251.52951 278.0004700000001 250.15056 278.46012000000013 248.86353 279.01170000000013 L 248.03616 279.37942000000015 L 247.48458 279.6552100000001 C 244.54282 281.21802000000014 241.87684 283.0566200000001 239.48666 284.7113700000001 C 240.31403 283.4243500000001 242.24456 280.0229300000001 241.50912 279.8390700000001 C 241.32526 279.7471400000001 241.23333 279.6552100000001 241.23333 279.6552100000001 C 240.68175 279.47135000000014 239.94630999999998 279.2874900000001 239.48666 279.47135000000014 z" stroke-linecap="round" />
</g>
		<g transform="matrix(1 0 0 1 -10.61 50.97)"  >
<path style="stroke: none; stroke-width: 1; stroke-dasharray: none; stroke-linecap: butt; stroke-dashoffset: 0; stroke-linejoin: miter; stroke-miterlimit: 10; fill: rgb(61,1,164); fill-rule: nonzero; opacity: 1;" vector-effect="non-scaling-stroke"  transform=" translate(-264.39, -285.97)" d="M 256.12603 288.20469 C 257.68884 287.65311 259.34358000000003 286.64188 260.63061 285.72258000000005 C 262.00955999999996 284.71135000000004 263.20465 283.60819000000004 264.12395 282.32117000000005 C 265.04325 281.03415000000007 265.87062 279.19555 264.39973999999995 278.00045000000006 C 262.65306999999996 276.7134300000001 260.26287999999994 277.63273000000004 258.792 278.55203000000006 C 257.04533 279.56326000000007 255.48251999999997 280.85028000000005 254.28741999999997 282.04537000000005 C 252.90846999999997 283.33239000000003 251.43758999999997 285.07906 250.42634999999996 286.64188000000007 C 249.59897999999995 288.02083000000005 248.67967999999996 289.9513600000001 249.04739999999995 291.60611000000006 C 249.59897999999995 293.35278000000005 251.34564999999995 294.36401000000006 253.09232999999995 294.54787000000005 C 254.56320999999994 294.63980000000004 256.1260199999999 294.45594000000006 257.50497999999993 294.08822000000004 C 260.07901999999996 293.44471000000004 263.1127199999999 291.97383 265.50289999999995 290.68681000000004 C 268.99623999999994 288.84821000000005 272.12186999999994 286.73381000000006 274.78783999999996 284.89521 L 277.72959999999995 282.87275 L 278.09731999999997 282.59696 L 279.29240999999996 281.67766 C 279.38433999999995 281.58573 279.56819999999993 281.40187000000003 279.56819999999993 281.40187000000003 L 279.7520599999999 281.12608000000006 C 279.8439899999999 280.8502900000001 279.8439899999999 280.75836000000004 279.7520599999999 280.48257000000007 L 279.6601299999999 280.3906400000001 L 279.47626999999994 280.2067800000001 C 279.20047999999997 280.0229200000001 279.38433999999995 280.0229200000001 278.92468999999994 279.9309900000001 C 278.92468999999994 279.9309900000001 278.5569699999999 279.83906000000013 278.64889999999997 279.83906000000013 L 278.55697 279.83906000000013 C 278.28118 279.83906000000013 278.09731999999997 279.83906000000013 277.91346 279.9309900000001 C 277.26995 280.1148500000001 276.62644 280.5745000000001 276.16679 280.85029000000014 C 275.24748999999997 281.5857300000001 273.96047 282.32117000000017 272.94924 283.05661000000015 C 267.98501 286.45802000000015 263.84815999999995 289.12400000000014 259.34358 291.14646000000016 C 257.41305 291.97383000000013 255.85023999999999 292.52541000000014 253.64390999999998 292.7092700000002 L 252.81653999999997 292.7092700000002 C 252.63267999999997 292.7092700000002 252.44881999999998 292.6173400000002 252.26495999999997 292.5254100000002 C 251.62144999999998 291.9738300000002 251.71337999999997 291.3303200000002 251.71337999999997 290.6868100000002 L 251.80530999999996 290.3190900000002 C 251.80530999999996 290.2271600000002 251.89723999999995 290.1352300000002 251.89723999999995 290.0433000000002 C 251.89723999999995 289.9513700000002 251.89723999999995 289.85944000000023 251.98916999999994 289.76751000000024 C 252.08109999999994 289.30786000000023 252.26495999999995 288.94014000000027 252.44881999999996 288.57242000000025 C 252.54074999999995 288.48049000000026 252.54074999999995 288.48049000000026 252.63267999999997 288.38856000000027 C 253.73583999999997 288.8482100000003 255.20671999999996 288.66435000000024 256.12602 288.2047000000003 z M 253.55199 286.82574 L 254.01164 286.18223 C 255.20673 284.61942 256.67761 283.24047 258.1485 281.95344 C 258.1485 281.95344 258.51622000000003 281.67765 258.60815 281.58572 C 259.06780000000003 281.21799999999996 259.43552 280.85028 259.9871 280.48256 C 260.9064 279.83905 261.73377 279.3794 262.56114 279.19554 C 262.65307 279.83905 262.28535000000005 280.48256 262.28535000000005 280.48256 C 259.2516600000001 285.07907 253.18427000000005 287.37732 253.55199000000005 286.82574 z" stroke-linecap="round" />
</g>
		<g transform="matrix(1 0 0 1 10.63 39.93)"  >
<path style="stroke: none; stroke-width: 1; stroke-dasharray: none; stroke-linecap: butt; stroke-dashoffset: 0; stroke-linejoin: miter; stroke-miterlimit: 10; fill: rgb(61,1,164); fill-rule: nonzero; opacity: 1;" vector-effect="non-scaling-stroke"  transform=" translate(-285.63, -274.93)" d="M 291.51913 258.69512 L 289.95632 260.25793 C 286.92263 263.47548 283.88893 267.42848 281.31489 271.01374999999996 C 278.37313 275.24253999999996 275.33943 280.29868999999997 273.13311 285.17098999999996 C 272.30574 287.10151999999994 271.38644 289.30785 271.01872 291.42224 C 270.92679 291.88189 270.92679 292.15767999999997 270.83486 292.61733 L 270.83486 292.98505 C 270.74293 293.99628 271.11064999999996 295.19137 271.5703 295.55909 C 273.59276 296.66225000000003 276.16681 295.74295 277.72961999999995 295.19137 C 279.47628999999995 294.54786 280.39558999999997 293.90435 281.49875999999995 293.26084000000003 L 282.41805999999997 292.70926000000003 C 284.9921 291.05452 287.38228999999995 289.30785000000003 289.68053999999995 287.56117 L 291.0594899999999 286.54994 C 291.6110699999999 285.99836 292.4384399999999 285.44678 293.08194999999995 284.8952 L 294.73668999999995 283.60818 C 295.74791999999997 282.87274 296.75915 281.86151 297.77037999999993 281.03414 C 298.4138899999999 280.20677 296.48335999999995 279.01167999999996 295.7479199999999 279.56325999999996 C 294.6447599999999 280.48256 293.4496699999999 281.40185999999994 292.3465099999999 282.41308999999995 C 290.7836999999999 283.79203999999993 289.1289599999999 285.17098999999996 287.4742099999999 286.36608999999993 C 286.64683999999994 286.91766999999993 285.9113999999999 287.5611799999999 285.1759599999999 288.02082999999993 C 282.69384999999994 289.7674999999999 280.8552399999999 291.14644999999996 277.5457599999999 292.80119999999994 C 276.9941799999999 293.0769899999999 276.71838999999994 293.26084999999995 275.8910199999999 293.5366399999999 C 274.9717199999999 293.99628999999993 273.40890999999993 294.2720799999999 273.5008399999999 293.8124299999999 L 273.5008399999999 293.4447099999999 C 273.5008399999999 292.98505999999986 273.5008399999999 292.89312999999987 273.5927699999999 292.52540999999985 C 273.8685599999999 290.31908999999985 274.7878599999999 288.20468999999986 275.70715999999993 286.18222999999983 L 276.9022499999999 283.6081899999998 L 276.9022499999999 283.7001199999998 C 277.91347999999994 283.0566099999998 279.10856999999993 282.0453799999998 280.02786999999995 281.2180099999998 L 280.8552399999999 280.48256999999984 C 282.96962999999994 278.64396999999985 286.00332999999995 275.8860599999998 287.84192999999993 273.95552999999984 C 290.8756199999999 270.7379799999998 293.81738999999993 267.0607699999998 296.39142999999996 263.47549999999984 L 296.94300999999996 262.64812999999987 C 297.77037999999993 261.3611099999999 298.50581999999997 260.34987999999987 299.51705 258.51126999999985 L 299.51705 258.41933999999986 C 300.06863 257.40810999999985 300.80406999999997 255.93722999999986 300.25248999999997 254.92599999999987 C 299.70090999999996 254.28248999999988 298.59774999999996 253.63897999999986 297.67844999999994 253.82283999999987 C 297.77037999999993 253.82283999999987 296.94300999999996 254.19055999999986 296.66721999999993 254.37441999999987 L 296.2994999999999 254.55827999999988 L 295.47212999999994 255.20178999999987 C 293.26580999999993 256.76459999999986 291.51912999999996 258.6951299999999 291.51912999999996 258.6951299999999 z M 297.49459 256.76459 C 297.40266 256.94845 297.31073000000004 257.04037999999997 297.31073000000004 257.13231 C 296.85108 257.95968 296.02371000000005 259.33863 295.38020000000006 260.07407 L 294.5528300000001 261.17723 C 292.1626500000001 264.85444 290.0482500000001 267.52041 286.3710500000001 271.65726 C 284.5324500000001 273.67972000000003 282.4180500000001 275.70219000000003 280.4875200000001 277.44886 L 280.3036600000001 277.54079 C 282.6938400000001 273.58779000000004 285.4517500000001 269.81866 288.3935100000001 266.14145 C 290.6917600000001 263.19969000000003 293.4496700000001 260.07406000000003 296.3914300000001 257.59195 L 297.40266000000014 256.76458 C 297.40266000000014 256.76458 297.5865200000001 256.67265000000003 297.49459000000013 256.76458 z" stroke-linecap="round" />
</g>
		<g transform="matrix(1 0 0 1 30.01 51.73)"  >
<path style="stroke: none; stroke-width: 1; stroke-dasharray: none; stroke-linecap: butt; stroke-dashoffset: 0; stroke-linejoin: miter; stroke-miterlimit: 10; fill: rgb(61,1,164); fill-rule: nonzero; opacity: 1;" vector-effect="non-scaling-stroke"  transform=" translate(-305.01, -286.73)" d="M 323.32696 280.57449 C 322.86731 280.29870000000005 322.13187 280.20677 321.48836 280.57449 C 317.62729 283.9759 313.95009 287.37732000000005 309.44551 289.76750000000004 C 307.51498000000004 290.77873000000005 305.95217 291.69803 304.11356 292.24961 C 301.90724 292.89312 300.52829 291.42224000000004 301.1718 289.76750000000004 L 301.44759 288.8482 C 301.72337999999996 287.83697 302.27495999999996 286.64188 302.82653999999997 285.53872 C 303.01039999999995 285.07907 303.37811999999997 284.61942 303.65390999999994 284.15977000000004 C 305.40057999999993 281.4938 305.76829999999995 281.40187000000003 306.50373999999994 280.48256000000003 C 306.5956699999999 280.29870000000005 306.7795299999999 280.20677000000006 306.87145999999996 280.02291 C 307.05531999999994 279.83905000000004 307.33110999999997 279.47133 307.33110999999997 279.28747000000004 L 307.33110999999997 279.19554000000005 C 307.33110999999997 278.18431000000004 305.21671999999995 277.54080000000005 304.57320999999996 278.27624000000003 C 304.02162999999996 279.10361 303.19426 279.83905000000004 302.55074999999994 280.66642 L 302.45881999999995 280.75835 L 299.60898999999995 283.33239000000003 L 294.27703999999994 289.03206000000006 C 293.44966999999997 289.9513600000001 292.53036999999995 290.87066000000004 291.51913999999994 291.6980300000001 C 290.78369999999995 292.43347000000006 290.0482599999999 292.89312000000007 289.03702999999996 293.44470000000007 C 288.94509999999997 293.53663000000006 288.85317 293.53663000000006 288.76124 293.53663000000006 C 288.48545 292.8011900000001 288.66931 291.97382000000005 288.94509999999997 291.23838000000006 C 289.49667999999997 289.49171000000007 290.69176999999996 288.11276000000004 291.79492999999997 286.8257300000001 C 292.89808999999997 285.4467800000001 294.27703999999994 284.25169000000005 295.38019999999995 283.3323900000001 C 296.66721999999993 282.41309000000007 298.04616999999996 281.5857200000001 299.51705999999996 280.9422100000001 C 299.3332 281.0341400000001 299.79284999999993 280.8502800000001 299.88478 280.8502800000001 C 299.97670999999997 280.7583500000001 300.16056999999995 280.8502800000001 300.2525 280.7583500000001 C 300.2525 280.7583500000001 300.2525 280.7583500000001 300.34443 280.7583500000001 C 300.52828999999997 280.8502800000001 300.62021999999996 280.9422100000001 300.80408 280.9422100000001 C 301.35566 281.2180000000001 302.0911 281.2180000000001 302.36689 280.5744900000001 C 302.82654 279.56326000000007 301.63145000000003 278.9197500000001 300.80408 278.6439600000001 C 300.06864 278.5520300000001 299.14934 278.7358900000001 298.50583 278.9197500000001 C 296.5753 279.56326000000007 295.01249 280.29870000000005 293.63353 281.30993000000007 C 291.70300000000003 282.68888000000004 290.04826 284.34362000000004 288.57737000000003 286.18223000000006 C 287.29035000000005 287.92890000000006 285.9114 289.76750000000004 285.81947 292.06576000000007 C 285.81947 293.0769900000001 286.18719000000004 294.1801500000001 287.01456 294.8236600000001 C 288.20965 295.65103000000005 289.49667 295.65103000000005 290.59983 295.1913800000001 C 291.61106 294.8236600000001 292.43843 294.3640100000001 293.17387 293.7205000000001 C 294.09317000000004 293.0769900000001 294.92054 291.9738300000001 295.83984000000004 291.14646000000005 C 296.85107000000005 290.22716 297.77037 289.39979000000005 298.59774000000004 288.38856000000004 C 298.23002 289.67558 298.04616000000004 291.14646000000005 298.7816 292.24963 C 299.97669 294.27209000000005 302.82653000000005 294.54788 305.03285000000005 294.27209000000005 C 306.4118 293.9963000000001 307.69882000000007 293.4447200000001 311.37603000000007 291.42226000000005 C 312.57112000000006 290.77875000000006 313.30656000000005 290.22717000000006 314.86937000000006 289.21594000000005 C 318.27078000000006 287.00962000000004 321.02869000000004 284.52750000000003 324.0623800000001 281.8615300000001 C 324.5220300000001 281.49381000000005 323.7865900000001 280.75837000000007 323.3269400000001 280.5745100000001 z" stroke-linecap="round" />
</g>
		<g transform="matrix(1 0 0 1 57.72 51.77)"  >
<path style="stroke: none; stroke-width: 1; stroke-dasharray: none; stroke-linecap: butt; stroke-dashoffset: 0; stroke-linejoin: miter; stroke-miterlimit: 10; fill: rgb(61,1,164); fill-rule: nonzero; opacity: 1;" vector-effect="non-scaling-stroke"  transform=" translate(-332.72, -286.77)" d="M 350.81406 279.74712 C 350.26248 279.47133 349.61897 279.3794 349.15932 279.83905 C 349.34317999999996 279.56326 349.15932 279.83905 348.97546 279.93098 L 348.51581 280.20676999999995 C 348.05616 280.4825599999999 347.68844 280.75834999999995 347.32072 281.12606999999997 L 343.91931 283.60817999999995 C 341.16141 285.63063999999997 338.4035 287.37731999999994 335.55367 289.2159199999999 L 331.50874 291.6060999999999 L 329.76207 292.52539999999993 C 329.30242 292.7092599999999 328.9347 292.89311999999995 328.47505 292.98504999999994 C 328.29119000000003 292.52539999999993 328.29119000000003 291.97381999999993 328.38312 291.60609999999997 C 328.47505 290.68679999999995 328.75084000000004 290.04328999999996 329.11856 289.21592 C 329.76207 287.56118 330.7733 286.09029999999996 331.60067 284.52747999999997 C 332.33610999999996 283.05659999999995 333.07155 281.49379 332.97961999999995 279.83903999999995 C 332.79576 279.01167 331.50873999999993 278.55201999999997 330.86522999999994 278.82780999999994 C 328.01539999999994 279.6551799999999 325.53327999999993 281.58570999999995 323.51081999999997 283.70010999999994 L 324.24625999999995 282.04536999999993 L 325.0736299999999 280.29869999999994 L 325.6252099999999 279.56325999999996 C 325.8090699999999 279.47132999999997 325.8090699999999 279.3794 325.9009999999999 279.3794 C 326.4525799999999 279.3794 326.9122299999999 279.01167999999996 326.6364399999999 278.36816999999996 C 326.3606499999999 277.81658999999996 325.5332799999999 277.5408 324.9816999999999 277.5408 C 323.51081999999985 277.5408 322.6834499999999 279.19554 322.1318699999999 280.2987 C 321.21256999999986 281.67764999999997 320.7529199999999 282.96467 319.9255499999999 284.15977 C 317.6272999999999 287.46925 315.5128999999999 290.87066999999996 313.8581599999999 294.73172999999997 C 313.6742999999999 295.19138 314.2258799999999 295.65103 314.59359999999987 295.74296 C 315.14517999999987 296.01874999999995 315.97254999999984 296.20261 316.34026999999986 295.65103 C 316.43219999999985 295.5591 316.52412999999984 295.46717 316.61605999999983 295.46717 C 319.0981699999998 292.70927 321.21256999999986 289.67557 323.60274999999984 287.00960000000003 C 325.44134999999983 285.07907000000006 327.5557499999998 282.96467 329.94592999999986 281.58572000000004 C 329.6701399999999 282.50502000000006 329.2104899999999 283.24046000000004 328.84276999999986 283.9759 C 327.83153999999985 285.63064 326.82030999999984 287.19345000000004 326.17679999999984 288.8482 C 325.53328999999985 290.31908000000004 325.07363999999984 291.97382000000005 325.90100999999987 293.44471000000004 C 326.63644999999985 294.63980000000004 327.73960999999986 295.19138000000004 329.2104899999999 294.91559000000007 C 330.3136499999999 294.7317300000001 331.5087399999999 294.2720800000001 332.5199699999999 293.7205000000001 C 333.80698999999987 293.16892000000007 335.00207999999986 292.4334800000001 336.2891099999999 291.69804000000005 C 339.32279999999986 289.85944000000006 342.1726399999999 288.02083000000005 344.9305399999999 286.09030000000007 C 347.2287899999999 284.43556000000007 349.43511999999987 282.87275000000005 351.4575799999999 281.0341400000001 C 351.9172299999999 280.5744900000001 351.2737199999999 279.8390500000001 350.8140699999999 279.7471200000001 z" stroke-linecap="round" />
</g>
		<g transform="matrix(1 0 0 1 85.2 39.36)"  >
<path style="stroke: none; stroke-width: 1; stroke-dasharray: none; stroke-linecap: butt; stroke-dashoffset: 0; stroke-linejoin: miter; stroke-miterlimit: 10; fill: rgb(61,1,164); fill-rule: nonzero; opacity: 1;" vector-effect="non-scaling-stroke"  transform=" translate(-360.2, -274.36)" d="M 352.92846 280.66642 C 353.11231999999995 281.03414000000004 354.85898999999995 280.85028 355.13478 280.2987 L 355.31863999999996 279.93098 C 356.14600999999993 277.81658999999996 352.74459999999993 278.00045 351.45757 278.55203 C 349.80283 279.28747 348.42388 280.57449 347.22878 281.86151 C 346.12561999999997 283.0566 345.02245999999997 284.34362 344.10315999999995 285.72258 C 342.99999999999994 287.19346 342.0806999999999 288.75627 341.43718999999993 290.50295 C 340.9775399999999 291.78997 340.88560999999993 293.26085 341.7129799999999 294.45595 C 342.3564899999999 295.28331999999995 343.6435099999999 295.65103999999997 344.7466699999999 295.55911 C 347.0449199999999 295.28332 349.15931999999987 293.44471999999996 350.90598999999986 291.97384 C 355.0428499999999 288.57243 358.72004999999984 284.43557 362.21339999999987 280.29870999999997 C 367.17762999999985 274.50710999999995 371.9579899999999 268.43971999999997 376.2787099999999 262.09655 C 377.1980099999999 260.7176 378.11730999999986 259.24672 378.76081999999985 257.6839 C 379.22046999999986 256.67267 379.6801199999999 255.20179 378.85274999999984 254.19056 C 378.11730999999986 253.17933 376.64642999999984 252.99547 375.54326999999984 253.27126 C 374.44010999999983 253.63898 373.5208099999998 254.37442000000001 372.69343999999984 255.10986000000003 C 370.48711999999983 256.94846 368.5565799999998 259.33865000000003 366.80990999999983 261.6369 C 365.2470999999998 263.56743 363.77621999999985 265.68183000000005 362.39725999999985 267.70429 C 361.38602999999983 269.17517000000004 360.46672999999987 270.73798 359.54742999999985 272.30080000000004 C 357.89268999999985 275.15063000000004 356.32987999999983 278.09240000000005 355.13477999999986 281.12609000000003 C 353.93968999999987 283.88399000000004 352.83652999999987 286.91769000000005 353.11231999999984 289.95138000000003 C 353.11231999999984 291.05454000000003 353.57196999999985 292.24963 354.3993399999998 293.07700000000006 C 355.41056999999984 294.08823000000007 356.6975899999998 294.5478800000001 358.1684799999998 294.5478800000001 C 359.4554999999998 294.4559500000001 360.74251999999984 294.08823000000007 361.8456899999998 293.62858000000006 C 363.40849999999983 292.98507000000006 364.7874499999998 292.2496300000001 366.1664099999998 291.33033000000006 C 369.1081699999998 289.67559000000006 371.86607999999984 287.65312000000006 374.4401199999998 285.53873000000004 C 374.9916999999998 285.17101 375.4513499999998 284.71136000000007 376.0029299999998 284.34364000000005 C 376.2787199999998 284.15978000000007 376.5545099999998 283.88399000000004 376.8302999999998 283.70013000000006 C 376.5545099999998 283.88399000000004 377.0141599999998 283.5162700000001 377.10608999999977 283.4243400000001 C 377.19801999999976 283.3324100000001 377.28994999999975 283.2404800000001 377.38187999999974 283.1485500000001 C 377.93345999999974 282.5969700000001 378.57696999999973 282.0453900000001 379.12854999999973 281.5857400000001 C 379.58819999999974 281.1260900000001 378.94468999999975 280.4825800000001 378.57696999999973 280.3906500000001 C 378.02538999999973 280.11486000000014 377.38187999999974 280.0229300000001 376.92222999999973 280.3906500000001 C 376.92222999999973 280.4825800000001 376.83029999999974 280.4825800000001 376.83029999999974 280.4825800000001 C 377.1060899999997 280.2987200000001 376.83029999999974 280.4825800000001 376.73836999999975 280.5745100000001 C 376.55450999999977 280.75837000000007 376.83029999999974 280.4825800000001 376.64643999999976 280.6664400000001 C 376.4625799999998 280.75837000000007 376.3706499999998 280.94223000000005 376.18678999999975 281.0341600000001 C 375.72713999999974 281.4018800000001 375.2674899999997 281.7696000000001 374.80783999999977 282.1373200000001 C 373.70467999999977 282.9646900000001 372.60151999999977 283.8839900000001 371.4064299999998 284.8032900000001 C 368.74045999999976 286.82575000000014 365.8906199999998 288.84822000000014 362.9488599999998 290.50296000000014 C 361.7537699999998 291.2384000000001 360.4667499999998 291.8819100000001 359.1797199999998 292.24963000000014 C 358.90392999999983 292.34156000000013 358.6281399999998 292.4334900000001 358.2604199999998 292.5254200000001 C 358.1684899999998 292.5254200000001 358.0765599999998 292.5254200000001 357.89269999999976 292.6173500000001 C 357.6169099999998 292.6173500000001 358.16848999999974 292.5254200000001 357.98462999999975 292.5254200000001 C 357.89269999999976 292.6173500000001 357.8007699999998 292.6173500000001 357.7088399999998 292.6173500000001 C 357.6169099999998 292.6173500000001 357.4330499999998 292.6173500000001 357.34111999999976 292.6173500000001 C 357.24918999999977 292.6173500000001 356.78953999999976 292.6173500000001 357.24918999999977 292.6173500000001 C 357.1572599999998 292.6173500000001 357.0653299999998 292.6173500000001 356.9733999999998 292.6173500000001 C 356.8814699999998 292.6173500000001 356.7895399999998 292.5254200000001 356.7895399999998 292.5254200000001 C 356.6976099999998 292.5254200000001 356.60567999999984 292.4334900000001 356.60567999999984 292.4334900000001 C 356.42181999999985 292.24963000000014 356.32988999999986 292.15770000000015 356.32988999999986 292.0657700000001 C 356.2379599999999 291.9738400000001 356.1460299999999 291.7899800000001 356.32988999999986 292.1577000000001 C 356.32988999999986 292.0657700000001 356.2379599999999 291.9738400000001 356.2379599999999 291.9738400000001 C 356.1460299999999 291.69805000000014 355.9621699999999 291.5141900000001 355.9621699999999 291.2384000000001 C 356.0540999999999 291.5141900000001 355.8702399999999 291.14647000000014 355.8702399999999 291.05454000000015 C 355.8702399999999 290.96261000000015 355.7783099999999 290.87068000000016 355.7783099999999 290.6868200000001 C 355.7783099999999 290.3191000000001 355.7783099999999 290.04331000000013 355.7783099999999 289.7675200000001 C 355.7783099999999 289.3998000000001 355.7783099999999 289.1240100000001 355.7783099999999 288.8482200000001 C 355.7783099999999 289.03208000000006 355.7783099999999 288.7562900000001 355.7783099999999 288.7562900000001 C 355.7783099999999 288.6643600000001 355.7783099999999 288.5724300000001 355.7783099999999 288.4805000000001 C 355.8702399999999 288.29664000000014 355.8702399999999 288.1127800000001 355.8702399999999 287.9289200000001 C 356.4218199999999 284.7113700000001 357.8007699999999 281.6776700000001 359.1797199999999 278.7359100000001 C 359.54743999999994 278.0004700000001 359.9151599999999 277.2650300000001 360.2828799999999 276.5295900000001 C 360.65059999999994 275.7941500000001 361.0183199999999 275.1506400000001 361.3860399999999 274.5990600000001 C 362.0295499999999 273.40397000000013 362.6730599999999 272.3008100000001 363.3165699999999 271.1976500000001 C 365.7067499999999 267.33658000000014 368.3727299999999 263.6593800000001 371.3144899999999 260.25796000000014 C 372.23378999999994 259.15480000000014 373.2450199999999 258.05164000000013 374.2562499999999 257.0404100000001 C 374.5320399999999 256.85655000000014 374.7158999999999 256.5807600000001 374.9916899999999 256.39690000000013 C 374.9916899999999 256.39690000000013 375.3594099999999 256.0291800000001 375.1755499999999 256.21304000000015 C 375.26747999999986 256.12111000000016 375.35940999999985 256.02918000000017 375.5432699999999 255.84532000000016 C 376.1867799999999 255.20181000000017 376.6464299999999 255.01795000000016 376.6464299999999 255.20181000000017 C 376.6464299999999 255.38567000000018 376.6464299999999 255.66146000000018 376.5544999999999 255.84532000000016 C 376.27870999999993 256.4888300000002 376.1867799999999 256.94848000000013 375.8190599999999 257.5919900000002 C 375.54326999999995 258.2355000000002 375.17554999999993 258.87901000000016 374.7158999999999 259.6144500000002 C 374.2562499999999 260.3498900000002 373.7965999999999 260.9934000000002 373.33694999999994 261.7288400000002 C 372.60150999999996 262.64814000000024 371.8660699999999 263.6593700000002 371.22255999999993 264.6706000000002 C 368.0969399999999 269.26711000000023 364.51165999999995 273.5878200000002 360.9263899999999 277.8166100000002 C 357.8007699999999 281.4938200000002 354.6751399999999 285.0790900000002 351.1817999999999 288.3885700000002 C 348.6996899999999 290.87068000000016 346.7691499999999 292.5254300000002 344.4708999999999 293.6285900000002 C 344.7466899999999 293.4447300000002 344.3789699999999 293.6285900000002 344.3789699999999 293.6285900000002 C 344.19510999999994 293.6285900000002 344.10317999999995 293.7205200000002 344.0112499999999 293.7205200000002 C 343.8273899999999 293.7205200000002 343.8273899999999 293.8124500000002 343.73545999999993 293.5366600000002 C 343.64352999999994 293.26087000000024 343.55159999999995 292.9850800000002 343.64352999999994 292.6173600000002 C 343.64352999999994 292.6173600000002 343.64352999999994 292.3415700000002 343.64352999999994 292.5254300000002 C 343.64352999999994 292.4335000000002 343.64352999999994 292.3415700000002 343.64352999999994 292.2496400000002 C 343.64352999999994 292.15771000000024 343.73545999999993 291.97385000000025 343.73545999999993 291.7899900000002 C 343.8273899999999 291.4222700000002 343.9193199999999 291.05455000000023 344.10317999999995 290.6868300000002 C 344.3789699999999 289.95139000000023 344.74668999999994 289.2159500000002 345.20633999999995 288.4805100000002 C 346.12564 286.9177000000002 347.13686999999993 285.5387500000002 348.33196 284.1597900000002 C 349.25126 282.9647000000002 350.26248999999996 281.9534700000002 351.36564999999996 280.9422400000002 C 352.00915999999995 280.3906600000002 352.56073999999995 280.3906600000002 352.83653 280.2987300000002 C 352.83653 280.2987300000002 352.83653 280.3906600000002 352.92846 280.6664500000002 z" stroke-linecap="round" />
</g>
		<g transform="matrix(1 0 0 1 -168.06 -36.19)"  >
<path style="stroke: none; stroke-width: 1; stroke-dasharray: none; stroke-linecap: butt; stroke-dashoffset: 0; stroke-linejoin: miter; stroke-miterlimit: 10; fill: rgb(61,1,164); fill-rule: nonzero; opacity: 1;" vector-effect="non-scaling-stroke"  transform=" translate(-106.94, -198.81)" d="M 88.99382 159.46873 L 106.61091 214.53564 L 106.93515000000001 214.53564 L 124.76840000000001 159.46873 L 148.87030000000001 159.46873 L 148.87030000000001 238.15118 L 130.55069 238.15118 L 130.55069 218.64269000000002 L 132.27997 182.70599 L 131.95573 182.65195000000003 L 112.98763999999998 238.15118 L 100.66648999999998 238.15118 L 81.91455999999998 183.13831000000002 L 81.59031999999998 183.19235 L 83.31959999999998 218.64268 L 83.31959999999998 238.15117 L 64.99998999999998 238.15117 L 64.99998999999998 159.46872000000002 z" stroke-linecap="round" />
</g>
		<g transform="matrix(1 0 0 1 -91.44 -14.28)"  >
<path style="stroke: none; stroke-width: 1; stroke-dasharray: none; stroke-linecap: butt; stroke-dashoffset: 0; stroke-linejoin: miter; stroke-miterlimit: 10; fill: rgb(61,1,164); fill-rule: nonzero; opacity: 1;" vector-effect="non-scaling-stroke"  transform=" translate(-183.56, -220.72)" d="M 182.86155 212.37403 L 182.91558999999998 212.80635 L 183.23982999999998 212.80635 L 192.91302 179.67974 L 212.36747 179.67974 L 189.07617 246.85164 C 187.27482999999998 251.17485 184.95111 254.7415 182.10499 257.55159 C 179.25887999999998 260.36168 174.73752 261.76671999999996 168.54091 261.76671999999996 C 166.95573 261.76671999999996 165.65877 261.66765 164.65001999999998 261.4695 C 163.64127 261.27135 162.05608999999998 260.90207999999996 159.89449 260.36168 L 162.11014 247.33800999999997 C 162.61451 247.44608999999997 162.9928 247.52714999999998 163.24498 247.58118999999996 C 163.49717 247.63522999999995 163.82141 247.66224999999997 164.2177 247.66224999999997 C 167.09984 247.66224999999997 169.20741 247.23893999999999 170.5404 246.39230999999998 C 171.87339 245.54567999999998 172.86413000000002 244.27573999999998 173.51261 242.58247999999998 L 174.97169 238.79966999999996 L 154.76067999999998 179.67974999999996 L 174.16108999999997 179.67974999999996 z" stroke-linecap="round" />
</g>
		<g transform="matrix(1 0 0 1 -26.4 -36.19)"  >
<path style="stroke: none; stroke-width: 1; stroke-dasharray: none; stroke-linecap: butt; stroke-dashoffset: 0; stroke-linejoin: miter; stroke-miterlimit: 10; fill: rgb(61,1,164); fill-rule: nonzero; opacity: 1;" vector-effect="non-scaling-stroke"  transform=" translate(-248.6, -198.81)" d="M 218.09573 238.15118 L 218.09573 159.46873 L 246.52085 159.46873 C 255.77973 159.46873 263.52548 162.48596999999998 269.75811 168.52044999999998 C 275.99073999999996 174.55492999999998 279.10705 182.29167999999999 279.10705 191.73068999999998 L 279.10705 205.88921 C 279.10705 215.36425 275.99074 223.10999999999999 269.75811 229.12646999999998 C 263.52548 235.14293999999998 255.77973 238.15116999999998 246.52085 238.15116999999998 z M 236.41534 173.51916 L 236.41534 224.10073 L 245.27792 224.10073 C 250.14153 224.10073 253.94236 222.43449 256.68039 219.10202 C 259.41841999999997 215.76954 260.78744 211.36527 260.78744 205.88920000000002 L 260.78744 191.6226 C 260.78744 186.18256 259.41842 181.80531000000002 256.68039 178.49084 C 253.94235999999998 175.17638 250.14153 173.51915 245.27792 173.51915 z" stroke-linecap="round" />
</g>
		<g transform="matrix(1 0 0 1 39.02 -26.06)"  >
<path style="stroke: none; stroke-width: 1; stroke-dasharray: none; stroke-linecap: butt; stroke-dashoffset: 0; stroke-linejoin: miter; stroke-miterlimit: 10; fill: rgb(61,1,164); fill-rule: nonzero; opacity: 1;" vector-effect="non-scaling-stroke"  transform=" translate(-314.02, -208.94)" d="M 316.12455 239.28602 C 307.51415 239.28602 300.64205 236.58401 295.50824 231.18 C 290.37443 225.77599 287.80752 219.00295 287.80752 210.86091000000002 L 287.80752 208.80738000000002 C 287.80752 199.90877000000003 290.14025000000004 192.64037000000002 294.80572 187.00218 C 299.47119000000004 181.36399 306.14514 178.56291000000002 314.82759 178.59894 C 322.75347999999997 178.59894 328.96808999999996 180.97671 333.47144 185.73224 C 337.97479 190.48776999999998 340.22646 196.93656 340.22646 205.07861 L 340.22646 214.64372 L 306.82964999999996 214.64372 L 306.72157 214.96796 C 307.11786 217.95818 308.34277 220.41701 310.3963 222.34444 C 312.44983 224.27186999999998 315.18786 225.23559 318.61039999999997 225.23559 C 322.06897 225.23559 324.83401999999995 224.96539 326.90556 224.42499 C 328.9771 223.88459 331.59805 222.94789 334.7684 221.6149 L 339.09161 232.74717 C 336.53371 234.62056 333.22825 236.17872 329.17524000000003 237.42164000000002 C 325.12223000000006 238.66456000000002 320.77200000000005 239.28602000000004 316.12455000000006 239.28602000000004 z M 314.82759 192.64937 C 312.19764 192.64937 310.22517 193.58607 308.91019 195.45946 C 307.59521 197.33285 306.79362 199.83671 306.5054 202.97104000000002 L 306.66752 203.24124 L 322.39320000000004 203.24124 L 322.39320000000004 201.8362 C 322.39320000000004 198.88200999999998 321.78075 196.61231999999998 320.55584000000005 195.02714 C 319.33093 193.44196 317.42151000000007 192.64937 314.82758000000007 192.64937 z" stroke-linecap="round" />
</g>
		<g transform="matrix(1 0 0 1 97.41 -26.06)"  >
<path style="stroke: none; stroke-width: 1; stroke-dasharray: none; stroke-linecap: butt; stroke-dashoffset: 0; stroke-linejoin: miter; stroke-miterlimit: 10; fill: rgb(61,1,164); fill-rule: nonzero; opacity: 1;" vector-effect="non-scaling-stroke"  transform=" translate(-372.41, -208.94)" d="M 381.56716 238.09714 C 381.06279 237.16044 380.60344 236.11567 380.18914 234.96281 C 379.77483 233.80995 379.42357 232.62107 379.13536 231.39615999999998 C 377.40608 233.80995 375.31651999999997 235.72838 372.8667 237.15143999999998 C 370.41688 238.57449999999997 367.44467 239.28602999999998 363.95007999999996 239.28602999999998 C 358.40196 239.28602999999998 353.88960999999995 237.68283999999997 350.41301999999996 234.47645999999997 C 346.93643999999995 231.27007999999998 345.19814999999994 227.00090999999998 345.19814999999994 221.66894999999997 C 345.19814999999994 215.86863999999997 347.36875999999995 211.39231999999996 351.70998999999995 208.23996999999997 C 356.05120999999997 205.08762999999996 362.65311999999994 203.51145999999997 371.5156999999999 203.51145999999997 L 378.1626399999999 203.51145999999997 L 378.1626399999999 199.35036999999997 C 378.1626399999999 196.86451999999997 377.5772099999999 194.95509999999996 376.4063399999999 193.62210999999996 C 375.2354699999999 192.28911999999997 373.4251299999999 191.62261999999996 370.97530999999987 191.62261999999996 C 368.8857599999999 191.62261999999996 367.32759999999985 192.11798999999996 366.3008399999999 193.10871999999995 C 365.27407999999986 194.09945999999994 364.7606999999999 195.63959999999994 364.7606999999999 197.72914999999995 L 347.08956999999987 197.67510999999996 L 346.9814899999999 197.35086999999996 C 346.7292999999999 192.01890999999995 348.9449499999999 187.56059999999997 353.62842999999987 183.97592999999995 C 358.31190999999984 180.39126999999993 364.5085099999999 178.59893999999994 372.21823999999987 178.59893999999994 C 379.4235899999999 178.59893999999994 385.26892999999984 180.40027999999995 389.75426999999985 184.00294999999994 C 394.2395999999998 187.60562999999993 396.48226999999986 192.75744999999995 396.48226999999986 199.45842999999994 L 396.48226999999986 221.50680999999994 C 396.48226999999986 224.64113999999995 396.74345999999986 227.54128999999995 397.26584999999983 230.20726999999994 C 397.7882399999998 232.87324999999993 398.57181999999983 235.52121999999994 399.61659999999983 238.15116999999995 z M 369.51621 226.26234 C 371.31755 226.26234 372.97478 225.90206999999998 374.4879 225.18153999999998 C 376.00102000000004 224.46099999999998 377.22593 223.52430999999999 378.16263000000004 222.37144999999998 L 378.16263000000004 213.23866999999998 L 371.67781 213.23866999999998 C 368.79567000000003 213.23866999999998 366.69711 213.94118999999998 365.38213 215.34624 C 364.06715 216.75128 363.40966000000003 218.53461 363.40966000000003 220.69621 C 363.40966000000003 222.35344 363.97708000000006 223.69544000000002 365.11192000000005 224.72220000000002 C 366.24676000000005 225.74896 367.71485000000007 226.26234000000002 369.51619000000005 226.26234000000002 z" stroke-linecap="round" />
</g>
		<g transform="matrix(1 0 0 1 141.61 -39)"  >
<path style="stroke: none; stroke-width: 1; stroke-dasharray: none; stroke-linecap: butt; stroke-dashoffset: 0; stroke-linejoin: miter; stroke-miterlimit: 10; fill: rgb(61,1,164); fill-rule: nonzero; opacity: 1;" vector-effect="non-scaling-stroke"  transform=" translate(-416.61, -196)" d="M 425.772 238.15118 L 407.45239 238.15118 L 407.45239 153.84856000000002 L 425.772 153.84856000000002 z" stroke-linecap="round" />
</g>
		<g transform="matrix(1 0 0 1 184.49 -26.06)"  >
<path style="stroke: none; stroke-width: 1; stroke-dasharray: none; stroke-linecap: butt; stroke-dashoffset: 0; stroke-linejoin: miter; stroke-miterlimit: 10; fill: rgb(61,1,164); fill-rule: nonzero; opacity: 1;" vector-effect="non-scaling-stroke"  transform=" translate(-459.49, -208.94)" d="M 467.43695 221.72297 C 467.43695 220.2819 466.61734 218.99394 464.97812000000005 217.8591 C 463.3389 216.72426000000002 460.35769000000005 215.7065 456.03448000000003 214.80583000000001 C 449.22542000000004 213.47284000000002 444.09161000000006 211.40130000000002 440.63304000000005 208.59121000000002 C 437.17447000000004 205.78112000000002 435.44519 201.94427000000002 435.44519 197.08066000000002 C 435.44519 191.92883000000003 437.6068 187.56059000000002 441.93001000000004 183.97593000000003 C 446.25322000000006 180.39127000000002 452.10757 178.59894000000003 459.49306 178.59894000000003 C 467.27484000000004 178.59894000000003 473.47144000000003 180.33723000000003 478.08287 183.81381000000002 C 482.6943 187.29039000000003 484.89193 191.78473000000002 484.67577 197.29683000000003 L 484.56769 197.62107000000003 L 466.84252000000004 197.62107000000003 C 466.84252000000004 195.31536000000003 466.25709000000006 193.56806000000003 465.08622 192.37918000000002 C 463.91535000000005 191.1903 462.03295 190.59586000000002 459.43902 190.59586000000002 C 457.5296 190.59586000000002 455.92641000000003 191.11825000000002 454.62945 192.16302000000002 C 453.33249 193.20780000000002 452.684 194.54079000000002 452.684 196.16199 C 452.684 197.71114 453.43156000000005 199.02612 454.92667 200.10692 C 456.42178 201.18772 459.43902 202.16045 463.97839 203.02509 C 471.11169 204.43013000000002 476.39862 206.52869 479.83916999999997 209.32077 C 483.27973 212.11284 484.99999999999994 216.06678000000002 484.99999999999994 221.18258 C 484.99999999999994 226.44249 482.6672699999999 230.77471 478.00179999999995 234.17923 C 473.3363299999999 237.58375999999998 467.1667499999999 239.28601999999998 459.4930499999999 239.28601999999998 C 451.53113999999994 239.28601999999998 445.23545999999993 237.26851999999997 440.60601999999994 233.23351999999997 C 435.97657999999996 229.19851999999997 433.76993999999996 224.69517999999997 433.98609999999996 219.72347999999997 L 434.09417999999994 219.39923999999996 L 450.6304599999999 219.39923999999996 C 450.7025099999999 222.17329999999995 451.5401399999999 224.17278999999996 453.14332999999993 225.39769999999996 C 454.7465199999999 226.62260999999995 457.02520999999996 227.23505999999995 459.9794099999999 227.23505999999995 C 462.4292299999999 227.23505999999995 464.28460999999993 226.75770999999995 465.5455399999999 225.80299999999994 C 466.8064799999999 224.84828999999993 467.4369499999999 223.48827999999995 467.4369499999999 221.72296999999995 z" stroke-linecap="round" />
</g>
</g>
</g>
</svg>